<svg xmlns="http://www.w3.org/2000/svg" viewBox="0 0 524 178"><circle cx="22" cy="145" r="1.8" fill="#CFC4AD"/><circle cx="41" cy="145" r="1.8" fill="#CFC4AD"/><circle cx="60" cy="145" r="1.8" fill="#CFC4AD"/><circle cx="79" cy="145" r="1.8" fill="#CFC4AD"/><circle cx="98" cy="145" r="1.8" fill="#CFC4AD"/><circle cx="117" cy="145" r="1.8" fill="#CFC4AD"/><circle cx="136" cy="145" r="1.8" fill="#CFC4AD"/><circle cx="155" cy="145" r="1.8" fill="#CFC4AD"/><circle cx="22" cy="126" r="1.8" fill="#CFC4AD"/><circle cx="41" cy="126" r="1.8" fill="#CFC4AD"/><circle cx="60" cy="126" r="1.8" fill="#CFC4AD"/><circle cx="79" cy="126" r="1.8" fill="#CFC4AD"/><circle cx="98" cy="126" r="1.8" fill="#CFC4AD"/><circle cx="117" cy="126" r="1.8" fill="#CFC4AD"/><circle cx="136" cy="126" r="1.8" fill="#CFC4AD"/><circle cx="155" cy="126" r="1.8" fill="#CFC4AD"/><circle cx="22" cy="107" r="1.8" fill="#CFC4AD"/><circle cx="41" cy="107" r="1.8" fill="#CFC4AD"/><circle cx="60" cy="107" r="1.8" fill="#CFC4AD"/><circle cx="79" cy="107" r="1.8" fill="#CFC4AD"/><circle cx="98" cy="107" r="1.8" fill="#CFC4AD"/><circle cx="117" cy="107" r="1.8" fill="#CFC4AD"/><circle cx="136" cy="107" r="1.8" fill="#CFC4AD"/><circle cx="155" cy="107" r="1.8" fill="#CFC4AD"/><circle cx="22" cy="88" r="1.8" fill="#CFC4AD"/><circle cx="41" cy="88" r="1.8" fill="#CFC4AD"/><circle cx="60" cy="88" r="1.8" fill="#CFC4AD"/><circle cx="79" cy="88" r="1.8" fill="#CFC4AD"/><circle cx="98" cy="88" r="1.8" fill="#CFC4AD"/><circle cx="117" cy="88" r="1.8" fill="#CFC4AD"/><circle cx="136" cy="88" r="1.8" fill="#CFC4AD"/><circle cx="155" cy="88" r="1.8" fill="#CFC4AD"/><circle cx="22" cy="69" r="1.8" fill="#CFC4AD"/><circle cx="41" cy="69" r="1.8" fill="#CFC4AD"/><circle cx="60" cy="69" r="1.8" fill="#CFC4AD"/><circle cx="79" cy="69" r="1.8" fill="#CFC4AD"/><circle cx="98" cy="69" r="1.8" fill="#CFC4AD"/><circle cx="117" cy="69" r="1.8" fill="#CFC4AD"/><circle cx="136" cy="69" r="1.8" fill="#CFC4AD"/><circle cx="155" cy="69" r="1.8" fill="#CFC4AD"/><circle cx="22" cy="50" r="1.8" fill="#CFC4AD"/><circle cx="41" cy="50" r="1.8" fill="#CFC4AD"/><circle cx="60" cy="50" r="1.8" fill="#CFC4AD"/><circle cx="79" cy="50" r="1.8" fill="#CFC4AD"/><circle cx="98" cy="50" r="1.8" fill="#CFC4AD"/><circle cx="117" cy="50" r="1.8" fill="#CFC4AD"/><circle cx="136" cy="50" r="1.8" fill="#CFC4AD"/><circle cx="155" cy="50" r="1.8" fill="#CFC4AD"/><circle cx="22" cy="31" r="1.8" fill="#CFC4AD"/><circle cx="41" cy="31" r="1.8" fill="#CFC4AD"/><circle cx="60" cy="31" r="1.8" fill="#CFC4AD"/><circle cx="79" cy="31" r="1.8" fill="#CFC4AD"/><circle cx="98" cy="31" r="1.8" fill="#CFC4AD"/><circle cx="117" cy="31" r="1.8" fill="#CFC4AD"/><circle cx="136" cy="31" r="1.8" fill="#CFC4AD"/><circle cx="155" cy="31" r="1.8" fill="#CFC4AD"/><circle cx="22" cy="12" r="1.8" fill="#CFC4AD"/><circle cx="41" cy="12" r="1.8" fill="#CFC4AD"/><circle cx="60" cy="12" r="1.8" fill="#CFC4AD"/><circle cx="79" cy="12" r="1.8" fill="#CFC4AD"/><circle cx="98" cy="12" r="1.8" fill="#CFC4AD"/><circle cx="117" cy="12" r="1.8" fill="#CFC4AD"/><circle cx="136" cy="12" r="1.8" fill="#CFC4AD"/><circle cx="155" cy="12" r="1.8" fill="#CFC4AD"/><polyline points="22,145 41,145 41,126 22,126 22,107 22,88 41,88 41,107 60,107 60,88 79,88 79,107 79,126 60,126 60,145 79,145 98,145 98,126 117,126 117,145 136,145 155,145 155,126 136,126 136,107 155,107 155,88 136,88 117,88 117,107 98,107 98,88 98,69 98,50 117,50 117,69 136,69 155,69 155,50 136,50 136,31 155,31 155,12 136,12 117,12 117,31 98,31 98,12 79,12 60,12 60,31 79,31 79,50 79,69 60,69 60,50 41,50 41,69 22,69 22,50 22,31 41,31 41,12 22,12" fill="none" stroke="#45632F" stroke-width="2.7" stroke-linejoin="round"/><circle cx="22" cy="145" r="4" fill="#45632F"/><circle cx="22" cy="12" r="4" fill="#7D5714"/><circle cx="292" cy="145" r="1.8" fill="#CFC4AD"/><circle cx="311" cy="145" r="1.8" fill="#CFC4AD"/><circle cx="330" cy="145" r="1.8" fill="#CFC4AD"/><circle cx="349" cy="145" r="1.8" fill="#CFC4AD"/><circle cx="368" cy="145" r="1.8" fill="#CFC4AD"/><circle cx="387" cy="145" r="1.8" fill="#CFC4AD"/><circle cx="406" cy="145" r="1.8" fill="#CFC4AD"/><circle cx="425" cy="145" r="1.8" fill="#CFC4AD"/><circle cx="292" cy="126" r="1.8" fill="#CFC4AD"/><circle cx="311" cy="126" r="1.8" fill="#CFC4AD"/><circle cx="330" cy="126" r="1.8" fill="#CFC4AD"/><circle cx="349" cy="126" r="1.8" fill="#CFC4AD"/><circle cx="368" cy="126" r="1.8" fill="#CFC4AD"/><circle cx="387" cy="126" r="1.8" fill="#CFC4AD"/><circle cx="406" cy="126" r="1.8" fill="#CFC4AD"/><circle cx="425" cy="126" r="1.8" fill="#CFC4AD"/><circle cx="292" cy="107" r="1.8" fill="#CFC4AD"/><circle cx="311" cy="107" r="1.8" fill="#CFC4AD"/><circle cx="330" cy="107" r="1.8" fill="#CFC4AD"/><circle cx="349" cy="107" r="1.8" fill="#CFC4AD"/><circle cx="368" cy="107" r="1.8" fill="#CFC4AD"/><circle cx="387" cy="107" r="1.8" fill="#CFC4AD"/><circle cx="406" cy="107" r="1.8" fill="#CFC4AD"/><circle cx="425" cy="107" r="1.8" fill="#CFC4AD"/><circle cx="292" cy="88" r="1.8" fill="#CFC4AD"/><circle cx="311" cy="88" r="1.8" fill="#CFC4AD"/><circle cx="330" cy="88" r="1.8" fill="#CFC4AD"/><circle cx="349" cy="88" r="1.8" fill="#CFC4AD"/><circle cx="368" cy="88" r="1.8" fill="#CFC4AD"/><circle cx="387" cy="88" r="1.8" fill="#CFC4AD"/><circle cx="406" cy="88" r="1.8" fill="#CFC4AD"/><circle cx="425" cy="88" r="1.8" fill="#CFC4AD"/><circle cx="292" cy="69" r="1.8" fill="#CFC4AD"/><circle cx="311" cy="69" r="1.8" fill="#CFC4AD"/><circle cx="330" cy="69" r="1.8" fill="#CFC4AD"/><circle cx="349" cy="69" r="1.8" fill="#CFC4AD"/><circle cx="368" cy="69" r="1.8" fill="#CFC4AD"/><circle cx="387" cy="69" r="1.8" fill="#CFC4AD"/><circle cx="406" cy="69" r="1.8" fill="#CFC4AD"/><circle cx="425" cy="69" r="1.8" fill="#CFC4AD"/><circle cx="292" cy="50" r="1.8" fill="#CFC4AD"/><circle cx="311" cy="50" r="1.8" fill="#CFC4AD"/><circle cx="330" cy="50" r="1.8" fill="#CFC4AD"/><circle cx="349" cy="50" r="1.8" fill="#CFC4AD"/><circle cx="368" cy="50" r="1.8" fill="#CFC4AD"/><circle cx="387" cy="50" r="1.8" fill="#CFC4AD"/><circle cx="406" cy="50" r="1.8" fill="#CFC4AD"/><circle cx="425" cy="50" r="1.8" fill="#CFC4AD"/><circle cx="292" cy="31" r="1.8" fill="#CFC4AD"/><circle cx="311" cy="31" r="1.8" fill="#CFC4AD"/><circle cx="330" cy="31" r="1.8" fill="#CFC4AD"/><circle cx="349" cy="31" r="1.8" fill="#CFC4AD"/><circle cx="368" cy="31" r="1.8" fill="#CFC4AD"/><circle cx="387" cy="31" r="1.8" fill="#CFC4AD"/><circle cx="406" cy="31" r="1.8" fill="#CFC4AD"/><circle cx="425" cy="31" r="1.8" fill="#CFC4AD"/><circle cx="292" cy="12" r="1.8" fill="#CFC4AD"/><circle cx="311" cy="12" r="1.8" fill="#CFC4AD"/><circle cx="330" cy="12" r="1.8" fill="#CFC4AD"/><circle cx="349" cy="12" r="1.8" fill="#CFC4AD"/><circle cx="368" cy="12" r="1.8" fill="#CFC4AD"/><circle cx="387" cy="12" r="1.8" fill="#CFC4AD"/><circle cx="406" cy="12" r="1.8" fill="#CFC4AD"/><circle cx="425" cy="12" r="1.8" fill="#CFC4AD"/><polyline points="292,145 292,126 311,145 311,126 292,107 292,88 311,107 311,88 330,145 330,126 349,145 349,126 330,107 330,88 349,107 349,88 292,69 292,50 311,69 311,50 292,31 292,12 311,31 311,12 330,69 330,50 349,69 349,50 330,31 330,12 349,31 349,12 368,145 368,126 387,145 387,126 368,107 368,88 387,107 387,88 406,145 406,126 425,145 425,126 406,107 406,88 425,107 425,88 368,69 368,50 387,69 387,50 368,31 368,12 387,31 387,12 406,69 406,50 425,69 425,50 406,31 406,12 425,31 425,12" fill="none" stroke="#7D5714" stroke-width="2.7" stroke-linejoin="round"/><circle cx="292" cy="145" r="4" fill="#45632F"/><circle cx="425" cy="12" r="4" fill="#7D5714"/></svg>