<svg xmlns="http://www.w3.org/2000/svg" width="720" height="300" viewBox="0 0 720 300" font-family="Helvetica,Arial,sans-serif">
<rect width="720" height="300" fill="white"/>
<text x="360.0" y="20" font-size="14" font-weight="bold" text-anchor="middle">R2 cache requests per hour during the v1.5.4 build (UTC)</text>
<line x1="56" y1="256.0" x2="706" y2="256.0" stroke="#eee"/>
<text x="50" y="259.0" font-size="9" fill="#888" text-anchor="end">0k</text>
<line x1="56" y1="212.8" x2="706" y2="212.8" stroke="#eee"/>
<text x="50" y="215.8" font-size="9" fill="#888" text-anchor="end">64k</text>
<line x1="56" y1="169.6" x2="706" y2="169.6" stroke="#eee"/>
<text x="50" y="172.6" font-size="9" fill="#888" text-anchor="end">127k</text>
<line x1="56" y1="126.4" x2="706" y2="126.4" stroke="#eee"/>
<text x="50" y="129.4" font-size="9" fill="#888" text-anchor="end">191k</text>
<line x1="56" y1="83.2" x2="706" y2="83.2" stroke="#eee"/>
<text x="50" y="86.2" font-size="9" fill="#888" text-anchor="end">254k</text>
<line x1="56" y1="40.0" x2="706" y2="40.0" stroke="#eee"/>
<text x="50" y="43.0" font-size="9" fill="#888" text-anchor="end">318k</text>
<rect x="62.5" y="256.0" width="30.3" height="0.0" fill="#2e7d32"/>
<rect x="62.5" y="256.0" width="30.3" height="0.0" fill="#2d7dd2"/>
<text x="77.7" y="269.0" font-size="8" fill="#333" text-anchor="middle">13</text>
<rect x="105.8" y="248.2" width="30.3" height="7.8" fill="#2e7d32"/>
<rect x="105.8" y="222.6" width="30.3" height="25.6" fill="#2d7dd2"/>
<text x="121.0" y="269.0" font-size="8" fill="#333" text-anchor="middle">14</text>
<rect x="149.2" y="231.7" width="30.3" height="24.3" fill="#2e7d32"/>
<rect x="149.2" y="197.8" width="30.3" height="33.9" fill="#2d7dd2"/>
<text x="164.3" y="269.0" font-size="8" fill="#333" text-anchor="middle">15</text>
<rect x="192.5" y="247.3" width="30.3" height="8.7" fill="#2e7d32"/>
<rect x="192.5" y="238.6" width="30.3" height="8.7" fill="#2d7dd2"/>
<text x="207.7" y="269.0" font-size="8" fill="#333" text-anchor="middle">16</text>
<rect x="235.8" y="243.9" width="30.3" height="12.1" fill="#2e7d32"/>
<rect x="235.8" y="213.7" width="30.3" height="30.2" fill="#2d7dd2"/>
<text x="251.0" y="269.0" font-size="8" fill="#333" text-anchor="middle">17</text>
<rect x="279.2" y="247.6" width="30.3" height="8.4" fill="#2e7d32"/>
<rect x="279.2" y="184.7" width="30.3" height="62.9" fill="#2d7dd2"/>
<text x="294.3" y="269.0" font-size="8" fill="#333" text-anchor="middle">18</text>
<rect x="322.5" y="246.1" width="30.3" height="9.9" fill="#2e7d32"/>
<rect x="322.5" y="113.8" width="30.3" height="132.3" fill="#2d7dd2"/>
<text x="337.7" y="269.0" font-size="8" fill="#333" text-anchor="middle">19</text>
<rect x="365.8" y="245.9" width="30.3" height="10.1" fill="#2e7d32"/>
<rect x="365.8" y="132.0" width="30.3" height="114.0" fill="#2d7dd2"/>
<text x="381.0" y="269.0" font-size="8" fill="#333" text-anchor="middle">20</text>
<rect x="409.2" y="247.1" width="30.3" height="8.9" fill="#2e7d32"/>
<rect x="409.2" y="98.3" width="30.3" height="148.7" fill="#2d7dd2"/>
<text x="424.3" y="269.0" font-size="8" fill="#333" text-anchor="middle">21</text>
<rect x="452.5" y="247.6" width="30.3" height="8.4" fill="#2e7d32"/>
<rect x="452.5" y="107.0" width="30.3" height="140.7" fill="#2d7dd2"/>
<text x="467.7" y="269.0" font-size="8" fill="#333" text-anchor="middle">22</text>
<rect x="495.8" y="245.3" width="30.3" height="10.7" fill="#2e7d32"/>
<rect x="495.8" y="63.1" width="30.3" height="182.2" fill="#2d7dd2"/>
<text x="511.0" y="269.0" font-size="8" fill="#333" text-anchor="middle">23</text>
<rect x="539.2" y="255.5" width="30.3" height="0.5" fill="#2e7d32"/>
<rect x="539.2" y="246.4" width="30.3" height="9.1" fill="#2d7dd2"/>
<text x="554.3" y="269.0" font-size="8" fill="#333" text-anchor="middle">00</text>
<rect x="582.5" y="253.7" width="30.3" height="2.3" fill="#2e7d32"/>
<rect x="582.5" y="238.7" width="30.3" height="15.0" fill="#2d7dd2"/>
<text x="597.7" y="269.0" font-size="8" fill="#333" text-anchor="middle">01</text>
<rect x="625.8" y="256.0" width="30.3" height="0.0" fill="#2e7d32"/>
<rect x="625.8" y="255.1" width="30.3" height="0.9" fill="#2d7dd2"/>
<text x="641.0" y="269.0" font-size="8" fill="#333" text-anchor="middle">02</text>
<rect x="669.2" y="256.0" width="30.3" height="0.0" fill="#2e7d32"/>
<rect x="669.2" y="256.0" width="30.3" height="0.0" fill="#2d7dd2"/>
<text x="684.3" y="269.0" font-size="8" fill="#333" text-anchor="middle">04</text>
<text x="381.0" y="286.0" font-size="9" fill="#777" text-anchor="middle">hour of day (UTC), 2026-06-17 → 06-18</text>
<rect x="60" y="38" width="11" height="11" fill="#2d7dd2"/><text x="75" y="47" font-size="10" fill="#333">Class B — reads (cache hits)</text>
<rect x="240" y="38" width="11" height="11" fill="#2e7d32"/><text x="255" y="47" font-size="10" fill="#333">Class A — writes</text>
</svg>